<svg width="28" height="29" viewBox="0 0 28 29" fill="none" xmlns="http://www.w3.org/2000/svg">
<path d="M27.7609 3.84375V25.1562C27.7609 26.7607 26.4349 28.0625 24.8005 28.0625H19.5396V17.3336H23.2771L23.8137 13.2406H19.5396V10.625C19.5396 9.43828 19.8727 8.63301 21.6058 8.63301H23.8137V4.97598C23.4313 4.92754 22.1238 4.8125 20.5943 4.8125C17.4118 4.8125 15.2286 6.71973 15.2286 10.2254V13.2467H11.4787V17.3396H15.2347V28.0625H3.0909C1.45651 28.0625 0.130493 26.7607 0.130493 25.1562V3.84375C0.130493 2.23926 1.45651 0.9375 3.0909 0.9375H24.8005C26.4349 0.9375 27.7609 2.23926 27.7609 3.84375Z" fill="white"/>
</svg>
