<svg width="83" height="83" viewBox="0 0 83 83" fill="none" xmlns="http://www.w3.org/2000/svg">
<path d="M24.2559 32.129V28.9161C21.043 26.2387 18.9011 22.2227 18.9011 17.671C18.9011 9.63871 25.5945 2.94509 33.6269 2.94509C41.6592 2.94509 48.3528 9.63857 48.3528 17.671C48.3528 21.1515 47.0142 24.6323 44.8721 27.042C45.9431 27.042 46.7465 27.3098 47.8172 27.5775C49.9593 24.6324 51.0302 21.1517 51.0302 17.4033C51.0302 7.76445 43.2656 0 33.6269 0C23.9882 0 16.2236 7.76445 16.2236 17.4032C16.2236 23.5613 19.4365 28.9161 24.2559 32.129Z" fill="white"/>
<path d="M45.6759 17.4032C45.6759 10.7097 40.321 5.35486 33.6274 5.35486C26.9338 5.35486 21.5791 10.7097 21.5791 17.4032C21.5791 20.3484 22.6501 23.0258 24.2565 24.8999V17.4032C24.2565 12.3161 28.5404 8.03214 33.6276 8.03214C38.7147 8.03214 42.9986 12.316 42.9986 17.4032V24.8999C44.6048 23.0258 45.6759 20.3484 45.6759 17.4032Z" fill="white"/>
<path d="M65.7564 37.4839C64.1499 37.4839 62.8113 38.0194 61.7402 38.8226C61.7402 35.0742 58.7951 32.1291 55.0467 32.1291C53.4403 32.1291 51.8337 32.6646 50.4949 33.7355C49.4242 31.0581 47.0145 29.4517 44.337 29.4517C42.7306 29.4517 41.3918 29.9871 40.3208 30.7903V17.4032C40.3208 13.6548 37.3756 10.7097 33.6274 10.7097C29.8791 10.7097 26.9339 13.6549 26.9339 17.4032V41.2323C21.579 36.4129 15.6887 32.6646 11.9403 36.4129C6.58548 41.7678 17.8306 52.2097 26.3984 68.0065C32.5565 78.9838 41.1243 83 49.692 83C62.2758 83 72.45 72.8259 72.45 60.2421V44.1775C72.45 40.429 69.5048 37.4839 65.7564 37.4839ZM69.7726 50.0679V60.2421C69.7726 70.6841 60.6694 80.3228 49.6919 80.3228C39.5177 80.3228 33.6274 74.7003 28.808 66.9357C18.366 49.2647 10.8692 41.2324 13.8144 38.2872C16.7597 35.3421 23.9886 41.7678 29.6112 47.6582V17.4032C29.6112 15.2613 31.4854 13.387 33.6274 13.387C35.7693 13.387 37.6436 15.2613 37.6436 17.4032V45.516H40.321V36.145C40.321 34.0031 42.1951 32.1288 44.3372 32.1288C46.479 32.1288 48.3534 34.0031 48.3534 36.145V42.8388H51.0308V38.8226C51.0308 36.6806 52.9049 34.8064 55.047 34.8064C57.1888 34.8064 59.0632 36.6806 59.0632 38.8226V45.516H61.7406V44.1774C61.7406 42.0355 63.6147 40.1612 65.7568 40.1612C67.8986 40.1612 69.773 42.0355 69.773 44.1774V50.0679H69.7726Z" fill="white"/>
</svg>
