<svg width="27" height="27" viewBox="0 0 27 27" fill="none" xmlns="http://www.w3.org/2000/svg">
<path fill-rule="evenodd" clip-rule="evenodd" d="M18.1008 6.20099H8.85504C7.37946 6.20099 6.17871 7.40167 6.17871 8.87731V18.123C6.17871 19.5988 7.37946 20.7996 8.85504 20.7996H18.1008C19.5766 20.7996 20.7773 19.5988 20.7773 18.123V8.87731C20.7773 7.40174 19.5766 6.20099 18.1008 6.20099ZM13.4777 18.306C10.828 18.306 8.67204 16.1499 8.67204 13.5C8.67204 10.8503 10.828 8.69432 13.4777 8.69432C16.1277 8.69432 18.2837 10.8503 18.2837 13.5C18.2837 16.1499 16.1277 18.306 13.4777 18.306ZM18.4383 9.68808C17.811 9.68808 17.3009 9.17798 17.3009 8.55102C17.3009 7.92398 17.811 7.41388 18.4383 7.41388C19.0653 7.41388 19.5754 7.92398 19.5754 8.55102C19.5754 9.17806 19.0653 9.68808 18.4383 9.68808Z" fill="white"/>
<path fill-rule="evenodd" clip-rule="evenodd" d="M13.4784 10.7254C11.9488 10.7254 10.7031 11.9704 10.7031 13.5001C10.7031 15.0303 11.9488 16.2756 13.4784 16.2756C15.0086 16.2756 16.2534 15.0303 16.2534 13.5001C16.2534 11.9704 15.0086 10.7254 13.4784 10.7254Z" fill="white"/>
<path fill-rule="evenodd" clip-rule="evenodd" d="M0 0.0219116V26.9784H26.9565V0.0219116H0ZM22.8082 18.123C22.8082 20.7189 20.697 22.8301 18.1012 22.8301H8.85544C6.25984 22.8301 4.14834 20.7189 4.14834 18.123V8.87735C4.14834 6.28175 6.25984 4.17025 8.85544 4.17025H18.1012C20.697 4.17025 22.8082 6.28175 22.8082 8.87735V18.123Z" fill="white"/>
</svg>
