<svg width="33" height="33" viewBox="0 0 33 33" fill="none" xmlns="http://www.w3.org/2000/svg">
<path d="M30.25 27.5096C30.2475 27.8707 30.103 28.2164 29.8478 28.4718C29.5926 28.7273 29.2471 28.8721 28.886 28.875H4.114C3.75212 28.8746 3.40518 28.7306 3.14942 28.4746C2.89366 28.2186 2.75 27.8715 2.75 27.5096V26.125H27.5V10.0375L16.5 19.9375L2.75 7.5625V5.5C2.75 5.13533 2.89487 4.78559 3.15273 4.52773C3.41059 4.26987 3.76033 4.125 4.125 4.125H28.875C29.2397 4.125 29.5894 4.26987 29.8473 4.52773C30.1051 4.78559 30.25 5.13533 30.25 5.5V27.5096ZM6.09675 6.875L16.5 16.2388L26.9032 6.875H6.09675ZM0 20.625H11V23.375H0V20.625ZM0 13.75H6.875V16.5H0V13.75Z" fill="#6D37F4"/>
</svg>
