<svg width="24" height="26" viewBox="0 0 24 26" fill="none" xmlns="http://www.w3.org/2000/svg">
<g clip-path="url(#clip0)">
<path d="M24 13.0888C24 19.8846 18.6275 25.3935 12 25.3935C5.3725 25.3935 0 19.8846 0 13.0888C0 6.29307 5.3725 0.78418 12 0.78418C18.6275 0.78418 24 6.29307 24 13.0888Z" fill="#ADDB31"/>
<path d="M9.35187 18.0076L4.17456 12.8412L7.39282 9.62964L9.35187 11.5845L15.8574 5.09387L19.0757 8.30541L9.35187 18.0076Z" fill="white"/>
<path d="M6.75 19.2412H11.25C11.6642 19.2412 12 19.5856 12 20.0103C12 20.435 11.6642 20.7793 11.25 20.7793H6.75C6.33582 20.7793 6 20.435 6 20.0103C6 19.5856 6.33582 19.2412 6.75 19.2412Z" fill="#6FBB2E"/>
<path d="M13.5 19.2412H15V20.7793H13.5V19.2412Z" fill="#6FBB2E"/>
<path d="M16.5 19.2412H18V20.7793H16.5V19.2412Z" fill="#6FBB2E"/>
</g>
<defs>
<clipPath id="clip0">
<rect width="24" height="24.6093" fill="white" transform="translate(0 0.78418)"/>
</clipPath>
</defs>
</svg>
