<svg width="73" height="53" viewBox="0 0 73 53" fill="none" xmlns="http://www.w3.org/2000/svg">
<path d="M56.6 52.8C52.0667 52.8 48.2 51.3333 45 48.4C41.9333 45.3333 40.4 40.4667 40.4 33.8C40.4 25.4 42.8 18.0667 47.6 11.8C52.5333 5.53333 59 1.86666 67 0.799991L67.8 7.19999C64.7333 7.73333 61.7333 8.86666 58.8 10.6C55.8667 12.2 54.4 14.2667 54.4 16.8C54.4 18.1333 54.7333 19.0667 55.4 19.6C56.0667 20 57.3333 20.4667 59.2 21C63.0667 22.2 66.2 24.1333 68.6 26.8C71 29.4667 72.2 32.8 72.2 36.8C72.2 41.0667 70.8667 44.8 68.2 48C65.5333 51.2 61.6667 52.8 56.6 52.8ZM16.4 53C11.8667 53 8 51.5333 4.8 48.6C1.73333 45.5333 0.200001 40.6667 0.200001 34C0.200001 25.6 2.6 18.2667 7.4 12C12.3333 5.73332 18.8 2.06666 26.8 0.999989L27.6 7.39999C24.5333 7.93332 21.5333 9.06666 18.6 10.8C15.6667 12.4 14.2 14.4667 14.2 17C14.2 18.3333 14.5333 19.2667 15.2 19.8C15.8667 20.2 17.1333 20.6667 19 21.2C22.8667 22.4 26 24.3333 28.4 27C30.8 29.6667 32 33 32 37C32 41.2667 30.6667 45 28 48.2C25.3333 51.4 21.4667 53 16.4 53Z" fill="#6D37F4"/>
</svg>
