<svg width="19" height="19" viewBox="0 0 19 19" fill="none" xmlns="http://www.w3.org/2000/svg">
<path d="M14.0242 13.2385L17.4149 16.6284L16.2947 17.7486L12.9048 14.3579C11.6435 15.369 10.0746 15.919 8.45801 15.9167C4.52501 15.9167 1.33301 12.7247 1.33301 8.79169C1.33301 4.85869 4.52501 1.66669 8.45801 1.66669C12.391 1.66669 15.583 4.85869 15.583 8.79169C15.5853 10.4083 15.0353 11.9771 14.0242 13.2385ZM12.4361 12.6511C13.4408 11.6178 14.0019 10.2329 13.9997 8.79169C13.9997 5.72952 11.5194 3.25002 8.45801 3.25002C5.39584 3.25002 2.91634 5.72952 2.91634 8.79169C2.91634 11.8531 5.39584 14.3334 8.45801 14.3334C9.89918 14.3356 11.2842 13.7745 12.3174 12.7698L12.4361 12.6511Z" fill="white"/>
</svg>
