<svg width="28" height="29" viewBox="0 0 28 29" fill="none" xmlns="http://www.w3.org/2000/svg">
<path d="M24.7856 0.9375H3.60548C2.01096 0.9375 0.717285 2.23926 0.717285 3.84375V25.1562C0.717285 26.7607 2.01096 28.0625 3.60548 28.0625H24.7856C26.3801 28.0625 27.6738 26.7607 27.6738 25.1562V3.84375C27.6738 2.23926 26.3801 0.9375 24.7856 0.9375ZM21.8433 10.5523C21.8553 10.7219 21.8553 10.8975 21.8553 11.067C21.8553 16.3164 17.884 22.365 10.6274 22.365C8.38906 22.365 6.31317 21.7111 4.56822 20.585C4.88712 20.6213 5.19399 20.6334 5.51892 20.6334C7.36616 20.6334 9.06297 20.0037 10.4168 18.9381C8.6839 18.9018 7.22777 17.7574 6.72835 16.1832C7.33607 16.274 7.88363 16.274 8.5094 16.1105C6.70428 15.7412 5.35044 14.1428 5.35044 12.2113V12.1629C5.87392 12.4596 6.48767 12.6412 7.13149 12.6654C6.59021 12.3031 6.14649 11.8116 5.83991 11.2348C5.53333 10.658 5.37344 10.0137 5.37451 9.35957C5.37451 8.6209 5.56705 7.94277 5.91003 7.35547C7.85354 9.76523 10.7718 11.3395 14.0451 11.509C13.4855 8.81465 15.4892 6.62891 17.896 6.62891C19.0333 6.62891 20.0562 7.10723 20.7782 7.88223C21.6688 7.7127 22.5232 7.37969 23.2813 6.92559C22.9865 7.8459 22.3667 8.6209 21.5484 9.11133C22.3427 9.02656 23.1129 8.80254 23.8229 8.49375C23.2874 9.28691 22.6134 9.98926 21.8433 10.5523Z" fill="white"/>
</svg>
