<svg width="28" height="27" viewBox="0 0 28 27" fill="none" xmlns="http://www.w3.org/2000/svg">
<path d="M25.4346 0.0219727H1.91732C0.966204 0.0219727 0.195801 0.792376 0.195801 1.74159V25.2589C0.195801 26.2081 0.966204 26.9785 1.91732 26.9785H25.4327C26.3819 26.9785 27.1523 26.2081 27.1523 25.2589V1.74159C27.1542 0.790474 26.3838 0.0219727 25.4346 0.0219727ZM22.5565 16.4477C23.0492 16.9499 24.1183 17.7926 23.9242 18.6505C23.7454 19.438 22.5698 19.1508 21.4285 19.1965C20.1255 19.2516 19.3532 19.2802 18.5695 18.6505C18.2004 18.3519 17.9836 17.9981 17.6298 17.6024C17.3083 17.2448 16.9031 16.6037 16.3515 16.6285C15.3604 16.6779 15.6705 18.0589 15.3185 19.0005C9.80968 19.868 7.59738 16.4649 5.64569 13.1626C4.70028 11.5628 3.33448 8.12738 3.33448 8.12738L7.23025 8.11407C7.23025 8.11407 8.48002 10.3872 8.81101 10.9731C9.09254 11.4715 9.4026 11.8672 9.72218 12.3123C9.99039 12.6813 10.4146 13.4042 10.8787 13.3452C11.6339 13.2482 11.7709 10.3188 11.3029 9.3372C11.1165 8.93963 10.6695 8.80077 10.2072 8.66571C10.3632 7.68036 14.5767 7.47492 15.2577 8.23961C16.2468 9.35052 14.5729 12.4435 15.9273 13.3452C17.8295 12.3484 19.454 8.17494 19.454 8.17494L24.0155 8.20347C24.0155 8.20347 23.3022 10.4595 22.5546 11.4601C22.119 12.046 20.6733 13.3509 20.7304 14.3191C20.776 15.0857 21.9516 15.8314 22.5565 16.4477Z" fill="white"/>
</svg>
