<svg width="27" height="27" viewBox="0 0 27 27" fill="none" xmlns="http://www.w3.org/2000/svg">
<path fill-rule="evenodd" clip-rule="evenodd" d="M2 0C0.895431 0 0 0.895431 0 2V25C0 26.1046 0.895431 27 2 27H25C26.1046 27 27 26.1046 27 25V2C27 0.895431 26.1046 0 25 0H2ZM22.5194 17.9186C22.2903 18.9125 21.4772 19.6464 20.4984 19.7558C18.1815 20.0141 15.8357 20.0158 13.4991 20.0141C11.1633 20.0158 8.81755 20.0141 6.49994 19.7558C5.52094 19.6465 4.70791 18.9125 4.47998 17.9186C4.15385 16.5035 4.15385 14.9575 4.15385 13.4999C4.15385 12.0424 4.1577 10.4971 4.48354 9.08203C4.71147 8.08712 5.52479 7.35415 6.50255 7.2449C8.8204 6.98588 11.1672 6.98487 13.5029 6.98588C15.8384 6.98493 18.1844 6.98588 20.502 7.2449C21.481 7.35415 22.294 8.08712 22.523 9.08203C22.8491 10.4971 22.8462 12.0424 22.8462 13.4999C22.8462 14.9575 22.8452 16.5035 22.5194 17.9186Z" fill="white"/>
<path fill-rule="evenodd" clip-rule="evenodd" d="M11.0881 16.4017C13.0741 15.3718 15.0425 14.3506 17.0304 13.32C15.0367 12.2798 13.0686 11.2537 11.0881 10.2202V16.4017Z" fill="white"/>
</svg>
