<svg width="30" height="30" viewBox="0 0 30 30" fill="none" xmlns="http://www.w3.org/2000/svg">
<g clip-path="url(#clip0)">
<path d="M16.045 15.1011C16.045 15.4694 16.3442 15.7687 16.7125 15.7687C17.0809 15.7687 17.3801 15.4694 17.3801 15.1011L17.3801 10.1058C17.3801 9.25404 17.0578 8.47136 16.4593 7.87284C15.8608 7.27432 15.0781 6.95204 14.2264 6.95204C12.4769 6.95204 11.0611 8.36777 11.0727 10.1058L11.0727 21.3856C11.0727 22.5596 11.5331 23.6645 12.3618 24.4933C13.1905 25.322 14.2954 25.7824 15.4695 25.7824C17.9096 25.7824 19.8778 23.8142 19.8778 21.374L19.8778 10.1173C19.8778 8.59797 19.2908 7.18224 18.2203 6.11181C17.1499 5.04139 15.7227 4.44287 14.2149 4.45438C12.6956 4.45438 11.2798 5.04139 10.2094 6.11181C9.13897 7.18224 8.54046 8.60948 8.55197 10.1173L8.55197 15.1126C8.55197 15.4809 8.85122 15.7802 9.21954 15.7802C9.58786 15.7802 9.88712 15.4809 9.88712 15.1126L9.88712 10.1173C9.88712 8.96629 10.336 7.87284 11.1532 7.05563C11.9704 6.23842 13.0639 5.78953 14.2149 5.78954C15.3659 5.78953 16.4593 6.23842 17.2765 7.05563C18.0937 7.87284 18.5426 8.96629 18.5426 10.1173V21.3741C18.5426 22.2028 18.2204 22.9624 17.6449 23.5379C17.0694 24.1134 16.2867 24.4357 15.481 24.4357C14.6523 24.4357 13.8926 24.1134 13.3171 23.5379C12.7416 22.9624 12.4193 22.1797 12.4193 21.374L12.4193 10.0943C12.4193 9.10441 13.2365 8.2872 14.2379 8.27569C14.7213 8.27569 15.1817 8.45985 15.527 8.80515C15.8723 9.15045 16.0565 9.61085 16.0565 10.0943L16.045 15.1011Z" fill="#909CB4"/>
</g>
<defs>
<clipPath id="clip0">
<rect width="20.9981" height="20.9981" fill="white" transform="translate(29.6958 14.8479) rotate(135)"/>
</clipPath>
</defs>
</svg>
