<svg id="Слой_1" data-name="Слой 1" xmlns="http://www.w3.org/2000/svg" viewBox="0 0 1464.67 1220.47"><defs><style>.cls-1{fill:#e6e6e6;}.cls-2{fill:#8966f2;}.cls-3{fill:#6610f2;}.cls-4{fill:#6d37f4;}</style></defs><title>newLogoPrents</title><path class="cls-1" d="M733.07,1180c0,1.1,0,2.21,0,3.31V1180Z" transform="translate(-17.33 -203)"/><path class="cls-1" d="M634.47,618.78" transform="translate(-17.33 -203)"/><circle class="cls-2" cx="715.16" cy="685.77" r="73.26"/><circle class="cls-3" cx="437.95" cy="103.24" r="103.24"/><circle class="cls-4" cx="1006.39" cy="118.44" r="103.24"/><path class="cls-1" d="M429.28,602.06" transform="translate(-17.33 -203)"/><path class="cls-4" d="M1482,393.12v9.2a29.51,29.51,0,0,1-13.76,25,26,26,0,0,1-4.22,2.22l-10.4,4.44-62.93,26.84-57.32,24.46-123.43,52.65.24,29,.43,51.56,1.53,187.81.08,8.43,46.11,138.82,70.66,212.7a381.16,381.16,0,0,1-120,88.93s1.31,114.53.46,121.21a54,54,0,0,1-107.47-6.9c0-.26,0-.5,0-.76h0l-11.25-80a385.2,385.2,0,0,1-43.47,2.46q-10.61,0-21-.59-10.89-.57-21.61-1.8l-12,81.42h0a53.95,53.95,0,0,1-107.88,0c0-.26,0-.5,0-.76V1254.79c-2-.93-3.92-1.88-5.86-2.86q-16.3-8.07-31.69-17.64c-3.83-2.39-7.63-4.83-11.37-7.36a381.19,381.19,0,0,1-59.38-49.26c-2.3-2.32-4.56-4.69-6.78-7.08L837.51,963l47.17-144.24v8.16c0-.25,0-.5,0-.76,0-2.73.08-5.45.23-8.14l-.25.74V613.17l-78.92,4.76L534.55,634.28A29.58,29.58,0,0,1,525.84,576L1058,447.7l102.79-22.1,151.08-32.49,45.47-9.78L1442.76,365l3.43-.75A29.59,29.59,0,0,1,1482,393.12Z" transform="translate(-17.33 -203)"/><path class="cls-3" d="M889.24,500.14a35.79,35.79,0,0,1-25.45,34.27L617.18,608.73V815.51H617c.12,2.53.18,5,.18,7.6q0,6.87-.56,13.58V963.06l-61.45-12.17-63.5-12.6-.33.59a24.44,24.44,0,0,0-19,44.86l1.17.91L606,1086.89a128.41,128.41,0,0,0-1,14.23c0,.77,0,1.56,0,2.35v270c0,.77,0,1.55.07,2.32a48,48,0,0,0,5,19.19,54,54,0,0,1-100.15-19.19L451.59,985.71l-51.87,385.9A54,54,0,0,1,291.93,1368c0-.79,0-1.59.06-2.38v0l.09-535.65V816.24c0-.24,0-.48,0-.73h-.18V577.59C173.73,514,29.4,434.28,21.39,414.26c-.88-2.2-4.17-6.46-4.06-13.54a35.77,35.77,0,0,1,42.89-34.51l391.62,79.42a33.63,33.63,0,0,0,5.48.67l397.76,18.09A35.78,35.78,0,0,1,889.24,500.14Z" transform="translate(-17.33 -203)"/><path class="cls-1" d="M617.18,1368a52.55,52.55,0,0,1-.56,7.77h0A53.74,53.74,0,0,1,610,1395a48,48,0,0,1-5-19.19c0-.77-.07-1.55-.07-2.32v-39.64a53.54,53.54,0,0,1,11.66,26.42A52.31,52.31,0,0,1,617.18,1368Z" transform="translate(-17.33 -203)"/><path class="cls-1" d="M292.08,816.26v13.65c-.11-2.25-.15-4.52-.15-6.8S292,818.54,292.08,816.26Z" transform="translate(-17.33 -203)"/><path class="cls-1" d="M555.17,950.89a161.77,161.77,0,0,1-81.69,33.76l-1.17-.91a24.44,24.44,0,0,1,19-44.86l.33-.59Z" transform="translate(-17.33 -203)"/><path class="cls-1" d="M291.93,1367.23" transform="translate(-17.33 -203)"/><path class="cls-1" d="M616.62,963.06v412.71H605c0-.77-.07-1.55-.07-2.32v-270c0-.79,0-1.58,0-2.35a128.41,128.41,0,0,1,1-14.23L473.48,984.65l-1.17-.91a24.44,24.44,0,0,1,19-44.86l.33-.59,63.5,12.6Z" transform="translate(-17.33 -203)"/><path class="cls-2" d="M968.55,937.62a24.25,24.25,0,0,0-7.83,1.28h0l-122.5,24-.7.14-3.36.65a559.74,559.74,0,0,1-216.16-.3l-1.37-.28-61.45-12.17-63.5-12.6s-3.17-.39-5.88-.56a.41.41,0,0,0-.15,0l-.34,0c-.44,0-.85,0-1.23,0a4.78,4.78,0,0,0-.53,0,24.43,24.43,0,0,0-11.23,46.12l1.18.91L606,1086.89a128.41,128.41,0,0,0-1,14.23c0,.77,0,1.56,0,2.35v270c0,.77,0,1.55.07,2.32a48,48,0,0,0,5,19.19,48.51,48.51,0,0,0,92-21.51c0-.12,0-.23,0-.33h0L726.39,1228l23.74,145.17v.33a48.5,48.5,0,1,0,97,0,1.72,1.72,0,0,0,0-.33h0v-268h0c0-.56,0-1.14,0-1.7a128,128,0,0,0-1.35-18.59l23-17.35L979.43,983.9a24.42,24.42,0,0,0-10.88-46.28Z" transform="translate(-17.33 -203)"/></svg>