<svg width="19" height="19" viewBox="0 0 19 19" fill="none" xmlns="http://www.w3.org/2000/svg">
<path d="M18.4381 14.9827V11.0882L17.9258 8.01726H13.0459L14.6313 9.20302V11.0816L13.6078 10.3244V10.6971H13.304V14.9817H12.9875V10.2868H13.2913V9.72287H12.8222L9.26493 7.10487L5.82938 9.78626H5.41299V10.3512H5.75533V14.9822H5.42162V10.7615H5.07928V10.5252L4.352 11.1292V9.21266L5.80909 8.01777H0.761765L0.249526 11.0887V14.9827H0V16.4545H19V14.9827H18.4381ZM2.50033 14.223H0.802845V13.2938H2.50033V14.223ZM2.50033 12.739H0.802845V11.8109H2.50033V12.739ZM3.20428 14.223V13.2938H4.90126V14.223H3.20428ZM3.20479 12.739V11.8109H4.90177V12.739H3.20479ZM9.32984 8.25563C9.7016 8.25563 10.0023 8.5574 10.0023 8.92814C10.0023 9.29888 9.7016 9.60064 9.32984 9.60064C8.9586 9.60064 8.65734 9.29888 8.65734 8.92814C8.65734 8.5574 8.9586 8.25563 9.32984 8.25563ZM12.0625 14.9817H11.6897V10.7428H6.86806V14.9817H6.53028V10.3507H6.85487V10.1327H11.8515V10.2868H12.0625V14.9817ZM15.3093 14.1266H13.6124V13.1975H15.3093V14.1266ZM15.3093 12.6421H13.6124V11.714H15.3093V12.6421ZM17.7108 14.1266H16.0138V13.1975H17.7108V14.1266ZM17.7108 12.6421H16.0138V11.714H17.7108V12.6421ZM9.27862 5.51541H9.17516V2.74374H9.39172V2.79649C9.62907 2.89995 10.2037 3.09622 10.5273 2.74526C10.9416 2.29642 11.6674 2.74526 11.6674 2.74526V4.02434C11.6674 4.02434 11.0801 3.54101 10.5273 4.02434C10.1068 4.39153 9.60727 4.20032 9.39172 4.08723V5.5149V5.51541H9.27964L14.3148 9.28112V10.3518L9.22182 6.58502L4.68521 10.3518V9.28112L9.27862 5.51541Z" fill="#909CB4"/>
</svg>
