<svg width="17" height="17" viewBox="0 0 17 17" fill="none" xmlns="http://www.w3.org/2000/svg">
<path d="M8.5 3.98438C7.40128 3.98438 6.50781 4.87784 6.50781 5.97656C6.50781 7.08053 7.39968 7.96875 8.5 7.96875C9.62004 7.96875 10.4922 7.0638 10.4922 5.97656C10.4922 4.87784 9.59872 3.98438 8.5 3.98438Z" fill="#909CB4"/>
<path d="M8.5 0C5.20432 0 2.52344 2.68089 2.52344 5.97656C2.52344 7.08986 2.83179 8.17644 3.41497 9.11904L8.15957 16.7644C8.3563 17.0821 8.82014 17.0772 9.01073 16.7576L13.6342 9.03829C14.1847 8.11564 14.4766 7.05679 14.4766 5.97656C14.4766 2.68089 11.7957 0 8.5 0ZM8.5 8.97149C6.82839 8.97149 5.50508 7.61085 5.50508 5.97656C5.50508 4.32872 6.85216 2.98164 8.5 2.98164C10.1478 2.98164 11.4949 4.32872 11.4949 5.97656C11.4949 7.59644 10.1894 8.97149 8.5 8.97149Z" fill="#909CB4"/>
</svg>
