<?xml version="1.0" standalone="no"?>
<!DOCTYPE svg PUBLIC "-//W3C//DTD SVG 20010904//EN"
 "http://www.w3.org/TR/2001/REC-SVG-20010904/DTD/svg10.dtd">
<svg version="1.0" xmlns="http://www.w3.org/2000/svg"
 width="325.000000pt" height="325.000000pt" viewBox="0 0 325.000000 325.000000"
 preserveAspectRatio="xMidYMid meet">
<metadata>
Created by potrace 1.11, written by Peter Selinger 2001-2013
</metadata>
<g transform="translate(0.000000,325.000000) scale(0.100000,-0.100000)"
fill="#000000" stroke="none">
<path d="M905 2967 c-108 -43 -164 -126 -159 -231 11 -203 272 -288 402 -131
71 87 66 220 -11 303 -52 57 -167 86 -232 59z"/>
<path d="M2186 2938 c-165 -35 -234 -227 -131 -363 78 -102 245 -113 335 -23
115 115 82 307 -65 371 -50 22 -89 26 -139 15z"/>
<path d="M49 2613 c-9 -2 -25 -19 -35 -38 -16 -30 -16 -37 -3 -61 18 -35 139
-113 396 -255 l203 -113 0 -888 c0 -967 -2 -924 56 -963 55 -36 139 -12 167
47 12 27 36 174 52 318 4 31 14 103 19 139 3 14 7 49 11 76 3 28 8 61 10 75 2
14 7 45 9 70 9 82 26 194 31 199 3 2 6 -8 6 -22 1 -15 2 -30 3 -34 1 -5 6 -33
10 -63 5 -30 10 -62 11 -71 5 -28 17 -107 40 -275 2 -17 6 -37 9 -45 3 -8 7
-36 10 -64 3 -27 8 -63 11 -80 9 -55 14 -90 21 -140 14 -112 59 -155 156 -146
9 0 30 12 46 26 26 22 31 23 43 9 21 -25 62 -42 93 -37 61 9 89 46 101 134 3
19 7 45 10 59 3 14 8 43 10 65 4 34 10 64 21 108 1 4 3 17 4 30 3 27 15 -23
24 -97 4 -27 8 -51 10 -55 2 -3 7 -31 11 -61 4 -30 9 -68 11 -84 12 -86 98
-127 169 -80 40 26 47 63 47 234 l0 159 41 -22 41 -23 2 -146 c1 -133 3 -148
23 -177 30 -42 87 -59 138 -40 43 17 70 56 78 114 3 22 11 70 17 106 l11 65
93 0 c52 0 95 -3 95 -8 1 -4 2 -11 3 -15 1 -5 6 -35 11 -68 5 -33 10 -64 11
-70 1 -5 2 -20 3 -33 0 -12 16 -38 34 -58 53 -58 131 -54 178 9 22 30 24 40
24 177 l0 145 45 23 c69 36 220 157 220 176 0 1 -14 43 -31 92 -17 49 -32 94
-33 99 -1 6 -46 141 -99 300 l-96 290 -2 303 c-1 166 0 304 2 307 3 2 90 40
194 85 105 44 204 87 220 95 17 7 55 23 85 35 30 12 65 31 78 42 29 28 29 77
1 107 -26 27 -46 26 -224 -14 -60 -13 -121 -26 -135 -29 -14 -2 -78 -16 -143
-30 -65 -14 -131 -28 -145 -31 -15 -2 -42 -9 -60 -14 -18 -5 -35 -10 -37 -10
-9 1 -68 -12 -135 -28 -36 -8 -76 -17 -90 -20 -14 -2 -43 -9 -65 -15 -22 -5
-50 -12 -61 -14 -12 -2 -62 -14 -111 -27 -88 -23 -91 -23 -102 -5 -19 30 -52
37 -198 43 -76 3 -176 7 -223 10 -47 2 -146 7 -220 10 -253 11 -315 16 -390
31 -41 9 -86 18 -100 20 -14 2 -45 9 -70 14 -25 5 -56 12 -70 14 -14 3 -45 9
-70 14 -84 18 -195 40 -235 48 -22 4 -44 9 -50 10 -5 2 -23 6 -40 9 -16 3 -52
10 -80 16 -65 13 -106 17 -126 12z m1876 -773 l1 -225 -53 -159 c-29 -87 -54
-160 -56 -162 -2 -2 -24 -7 -48 -10 -24 -3 -55 -7 -69 -10 -32 -5 -217 -6
-250 0 -14 2 -46 7 -72 11 l-48 6 0 370 c0 203 3 369 8 370 25 3 237 17 387
25 61 4 111 7 112 8 1 0 21 1 45 1 l43 0 0 -225z"/>
<path d="M1525 1605 c-44 -21 -60 -36 -82 -77 -32 -60 -17 -144 34 -190 21
-20 81 -44 103 -43 76 5 131 40 156 101 21 49 17 92 -11 141 -41 70 -132 101
-200 68z"/>
</g>
</svg>
